<svg width="2007" height="400" viewBox="0 0 2007 400" fill="none" xmlns="http://www.w3.org/2000/svg">
<g filter="url(#filter0_i_48_54)">
<path d="M20 9.99999C20 4.47714 24.4772 0 30 0H301C318.121 0 332 13.8792 332 31V370C332 386.569 318.569 400 302 400H37C27.6112 400 20 392.389 20 383V9.99999Z" fill="url(#paint0_linear_48_54)"/>
</g>
<g filter="url(#filter1_d_48_54)">
<path d="M56 76C56 71.0294 60.0294 67 65 67H289C294.523 67 299 71.4772 299 77V166C299 171.523 294.523 176 289 176H64C59.5817 176 56 172.418 56 168V76Z" fill="#F7F8FA"/>
</g>
<rect y="54" width="43" height="27" rx="5" fill="url(#paint1_linear_48_54)"/>
<rect y="121" width="43" height="27" rx="5" fill="url(#paint2_linear_48_54)"/>
<rect y="185" width="43" height="27" rx="5" fill="url(#paint3_linear_48_54)"/>
<rect y="252" width="43" height="27" rx="5" fill="url(#paint4_linear_48_54)"/>
<rect y="316" width="43" height="27" rx="5" fill="url(#paint5_linear_48_54)"/>
<path d="M332 47H360.5C363.809 47.1405 364.645 48.05 364.5 51V98.3405C364.5 101.577 362.933 104.614 360.295 106.49L342 119.5H332V47Z" fill="url(#paint6_linear_48_54)"/>
<path d="M332 119H360.5C363.809 119.14 364.645 120.05 364.5 123V170.34C364.5 173.577 362.933 176.614 360.295 178.49L342 191.5H332V119Z" fill="url(#paint7_linear_48_54)"/>
<path d="M332 191H360.925C364.283 191.159 365.131 192.188 364.984 195.524V249.814C364.984 253.012 363.455 256.017 360.87 257.899L341.5 272L332 278.5V191Z" fill="url(#paint8_linear_48_54)"/>
<path d="M98.624 131.808C99.6053 131.808 100.48 131.595 101.248 131.168L100.928 138.4C98.9227 140.064 96.64 140.896 94.08 140.896C88.2773 140.896 85.376 138.464 85.376 133.6C85.376 132.747 85.4613 131.829 85.632 130.848L87.04 122.976C87.168 122.208 87.232 121.44 87.232 120.672C87.232 118.624 86.144 117.6 83.968 117.6C81.8347 117.6 80.1707 118.325 78.976 119.776L75.392 140H64.512L73.088 91.424H83.968L80.32 112.096C82.6667 109.579 85.6107 108.32 89.152 108.32C93.4613 108.32 96.256 109.28 97.536 111.2C98.432 112.48 98.88 113.909 98.88 115.488C98.88 117.067 98.752 118.517 98.496 119.84L96.768 129.376C96.7253 129.632 96.704 129.867 96.704 130.08C96.704 131.232 97.344 131.808 98.624 131.808ZM118.729 140.896C113.78 140.896 110.217 139.787 108.041 137.568C106.42 135.947 105.609 133.771 105.609 131.04C105.609 130.144 105.694 129.184 105.865 128.16L110.217 103.392L121.929 98.528L120.073 109.216H137.737L136.137 118.24H118.473L117.193 125.472C117.022 126.283 116.937 127.008 116.937 127.648C116.937 130.336 118.217 131.68 120.777 131.68C122.142 131.68 123.273 131.104 124.169 129.952C125.108 128.8 125.748 127.264 126.089 125.344H136.713C134.921 135.712 128.926 140.896 118.729 140.896ZM153.854 140.896C148.905 140.896 145.342 139.787 143.166 137.568C141.545 135.947 140.734 133.771 140.734 131.04C140.734 130.144 140.819 129.184 140.99 128.16L145.342 103.392L157.054 98.528L155.198 109.216H172.862L171.262 118.24H153.598L152.318 125.472C152.147 126.283 152.062 127.008 152.062 127.648C152.062 130.336 153.342 131.68 155.902 131.68C157.267 131.68 158.398 131.104 159.294 129.952C160.233 128.8 160.873 127.264 161.214 125.344H171.838C170.046 135.712 164.051 140.896 153.854 140.896ZM197.491 108.384C201.843 108.384 204.851 109.536 206.515 111.84C207.71 113.419 208.307 115.424 208.307 117.856C208.307 118.837 208.2 119.883 207.987 120.992L206.707 128.48C205.982 132.533 204.424 135.627 202.035 137.76C199.646 139.851 196.659 140.896 193.075 140.896C189.491 140.896 186.995 139.936 185.587 138.016L182.131 157.792H171.251L179.827 109.216H189.683L189.363 110.944C191.368 109.237 194.078 108.384 197.491 108.384ZM190.835 131.68C192.03 131.68 193.139 131.296 194.163 130.528C195.187 129.76 195.827 128.608 196.083 127.072L196.915 122.272C197 121.845 197.043 121.312 197.043 120.672C197.043 120.032 196.766 119.349 196.211 118.624C195.656 117.899 194.696 117.536 193.331 117.536C191.112 117.536 189.662 118.069 188.979 119.136L187.059 129.888C187.656 131.083 188.915 131.68 190.835 131.68ZM211.902 136.288C211.902 133.557 212.499 131.573 213.694 130.336C214.889 129.056 216.787 128.416 219.39 128.416C222.974 128.416 224.766 129.995 224.766 133.152C224.766 135.84 224.147 137.803 222.91 139.04C221.715 140.277 219.817 140.896 217.214 140.896C213.673 140.896 211.902 139.36 211.902 136.288ZM215.422 116.128C215.422 113.397 216.019 111.413 217.214 110.176C218.451 108.896 220.158 108.256 222.334 108.256C224.51 108.256 226.046 108.64 226.942 109.408C227.838 110.133 228.286 111.328 228.286 112.992C228.286 115.68 227.667 117.643 226.43 118.88C225.235 120.117 223.337 120.736 220.734 120.736C217.193 120.736 215.422 119.2 215.422 116.128ZM239.073 157.728H225.697L257.441 91.36H270.753L239.073 157.728ZM260.698 157.728H247.322L279.066 91.36H292.378L260.698 157.728Z" fill="#114185"/>
<path d="M579.613 132.7L575.828 254.038H580.949L619.688 132.7H663.325L608.333 293H541.542L547.553 190.364L517.719 293H450.928L452.486 132.7H496.124L492.116 254.038H497.237L536.198 132.7H579.613ZM702.509 296.117C671.637 296.117 656.201 285.43 656.201 264.057C656.201 261.089 656.497 257.897 657.091 254.484L661.766 226.876C664.29 212.628 670.82 201.718 681.359 194.149C692.045 186.43 706.146 182.571 723.66 182.571C753.493 182.571 768.41 193.852 768.41 216.412C768.41 219.678 768.113 223.24 767.52 227.099L764.848 242.906H696.943L696.053 248.027C695.756 249.808 695.607 251.441 695.607 252.925C695.607 261.089 700.431 265.17 710.079 265.17C713.641 265.17 716.684 264.057 719.207 261.831C721.73 259.604 723.215 257.007 723.66 254.038L760.618 254.484C755.72 282.239 736.35 296.117 702.509 296.117ZM729.226 229.325C729.82 226.802 730.116 224.502 730.116 222.424C730.116 220.197 729.152 217.971 727.222 215.745C725.293 213.518 722.176 212.405 717.871 212.405C713.715 212.405 709.856 213.815 706.294 216.635C702.88 219.455 700.506 223.685 699.17 229.325H729.226ZM856.744 182.794C871.438 182.794 881.753 186.876 887.69 195.039C892.143 200.828 894.37 207.878 894.37 216.19C894.37 219.604 893.999 223.166 893.256 226.876L888.804 251.812C886.28 266.061 879.675 277.044 868.989 284.762C858.451 292.332 845.092 296.117 828.914 296.117C812.884 296.117 800.565 292.926 791.956 286.543C785.128 281.497 781.715 274.447 781.715 265.393C781.715 263.018 781.937 260.569 782.383 258.046L805.982 124.018H843.831L832.476 188.805C838.71 184.798 846.799 182.794 856.744 182.794ZM854.74 230.216C854.888 229.029 854.963 227.396 854.963 225.318C854.963 223.092 853.998 220.791 852.068 218.416C850.287 215.893 846.28 214.631 840.046 214.631C833.96 214.631 829.582 216.487 826.91 220.197L820.454 257.378C822.235 261.831 825.945 264.057 831.586 264.057C843.014 264.057 849.768 258.343 851.846 246.914L854.74 230.216ZM1008.21 293H906.684L934.959 132.7H975.034L952.993 258.268H1014.44L1008.21 293ZM1073.69 264.502C1077.11 264.502 1080.15 263.76 1082.82 262.276L1081.71 287.434C1074.73 293.223 1066.79 296.117 1057.89 296.117C1044.38 296.117 1035.62 293 1031.61 286.766C1028.94 282.61 1027.61 278.232 1027.61 273.63C1027.61 268.881 1027.9 264.725 1028.5 261.163L1041.86 185.911H1079.7L1067.24 256.042C1067.09 256.933 1067.01 257.749 1067.01 258.491C1067.01 262.499 1069.24 264.502 1073.69 264.502ZM1046.31 149.621C1046.31 140.122 1048.39 133.22 1052.54 128.916C1056.85 124.463 1063.45 122.236 1072.36 122.236C1084.82 122.236 1091.06 127.728 1091.06 138.712C1091.06 148.062 1088.91 154.89 1084.6 159.194C1080.45 163.499 1073.84 165.651 1064.79 165.651C1052.47 165.651 1046.31 160.308 1046.31 149.621ZM1168.2 224.65C1168.2 218.268 1165.08 215.077 1158.85 215.077C1152.76 215.077 1147.71 217.377 1143.71 221.978L1131.24 293H1093.39L1112.32 185.911H1147.49L1145.04 199.047C1153.8 188.212 1164.86 182.794 1178.22 182.794C1191.57 182.794 1200.26 186.059 1204.26 192.59C1206.79 196.746 1208.05 201.496 1208.05 206.839C1208.05 212.182 1207.68 217.155 1206.94 221.756L1200.93 256.042C1200.78 256.933 1200.7 257.749 1200.7 258.491C1200.7 262.499 1202.93 264.502 1207.38 264.502C1210.8 264.502 1213.84 263.76 1216.51 262.276L1215.4 287.434C1208.42 293.223 1200.48 296.117 1191.57 296.117C1171.39 296.117 1161.3 287.657 1161.3 270.736C1161.3 267.768 1161.59 264.577 1162.19 261.163L1167.53 231.552C1167.97 228.88 1168.2 226.58 1168.2 224.65ZM1336.21 264.502C1339.63 264.502 1342.67 263.76 1345.34 262.276L1344.23 287.434C1337.25 293.223 1328.72 296.117 1318.62 296.117C1308.53 296.117 1301.04 293.445 1296.14 288.102C1291.39 282.759 1287.68 273.779 1285.01 261.163L1284.34 258.046C1281.22 258.491 1276.55 258.862 1270.31 259.159L1264.3 293H1226.45L1256.29 124.018H1294.13L1281.22 197.266C1289.98 187.618 1301.85 182.794 1316.84 182.794C1326.94 182.794 1334.36 185.317 1339.11 190.364C1344 195.262 1346.45 201.867 1346.45 210.179C1346.45 226.209 1338.07 238.75 1321.3 247.804L1323.74 256.042C1325.38 261.682 1329.53 264.502 1336.21 264.502ZM1297.7 213.073C1289.68 213.073 1282.56 216.858 1276.32 224.427L1273.87 239.122C1295.84 238.231 1306.82 232.368 1306.82 221.533C1306.82 219.01 1306.01 217.006 1304.38 215.522C1302.89 213.889 1300.66 213.073 1297.7 213.073ZM1506.93 132.7C1526.37 132.7 1540.25 137.598 1548.56 147.395C1554.65 154.816 1557.69 164.092 1557.69 175.224C1557.69 179.232 1557.32 183.462 1556.58 187.915L1547.9 237.563C1544.93 254.335 1537.66 267.768 1526.08 277.861C1514.5 287.954 1499.51 293 1481.1 293H1416.32L1444.59 132.7H1506.93ZM1492.9 167.432H1478.43L1462.63 258.268H1483.78C1490.75 258.268 1496.17 256.413 1500.03 252.702C1504.04 248.843 1506.78 242.61 1508.27 234.001L1514.72 197.488C1515.32 194.223 1515.61 191.254 1515.61 188.583C1515.61 174.482 1508.04 167.432 1492.9 167.432ZM1612.89 264.502C1616.31 264.502 1619.35 263.76 1622.02 262.276L1620.91 287.434C1613.93 293.223 1605.99 296.117 1597.09 296.117C1583.58 296.117 1574.82 293 1570.82 286.766C1568.14 282.61 1566.81 278.232 1566.81 273.63C1566.81 268.881 1567.11 264.725 1567.7 261.163L1581.06 185.911H1618.91L1606.44 256.042C1606.29 256.933 1606.22 257.749 1606.22 258.491C1606.22 262.499 1608.44 264.502 1612.89 264.502ZM1585.51 149.621C1585.51 140.122 1587.59 133.22 1591.74 128.916C1596.05 124.463 1602.65 122.236 1611.56 122.236C1624.03 122.236 1630.26 127.728 1630.26 138.712C1630.26 148.062 1628.11 154.89 1623.8 159.194C1619.65 163.499 1613.04 165.651 1603.99 165.651C1591.67 165.651 1585.51 160.308 1585.51 149.621ZM1740.13 258.714C1740.13 262.573 1742.06 264.502 1745.92 264.502C1749.92 264.502 1753.26 263.76 1755.93 262.276L1754.82 287.434C1747.7 293.223 1739.68 296.117 1730.78 296.117C1714.45 296.117 1705.4 290.18 1703.61 278.306C1696.19 290.18 1685.28 296.117 1670.89 296.117C1646.54 296.117 1634.37 285.653 1634.37 264.725C1634.37 261.163 1634.75 257.229 1635.49 252.925L1640.16 226.876C1642.54 213.518 1647.95 202.906 1656.42 195.039C1665.02 187.024 1676.16 183.017 1689.81 183.017C1703.61 183.017 1712.97 186.208 1717.86 192.59L1718.98 185.911H1752.82L1740.35 256.042C1740.2 256.933 1740.13 257.823 1740.13 258.714ZM1674.23 248.027C1673.93 249.363 1673.78 251.218 1673.78 253.593C1673.78 255.968 1674.89 258.343 1677.12 260.717C1679.35 262.944 1683.06 264.057 1688.25 264.057C1693.6 264.057 1698.2 261.979 1702.06 257.823L1708.74 220.42C1707.1 216.709 1703.24 214.854 1697.16 214.854C1685.73 214.854 1679.05 220.346 1677.12 231.329L1674.23 248.027ZM1877.62 208.62C1877.62 213.667 1876.73 218.565 1874.95 223.314C1873.32 228.064 1871.68 231.552 1870.05 233.778L1867.6 236.895H1833.98C1837.69 233.481 1839.55 229.251 1839.55 224.205C1839.55 221.533 1838.66 219.381 1836.88 217.748C1835.24 215.967 1832.94 215.077 1829.98 215.077C1824.93 215.077 1820.55 217.6 1816.84 222.646L1804.37 293H1766.52L1785.45 185.911H1820.62L1817.95 200.828C1826.41 188.805 1836.65 182.794 1848.68 182.794C1858.32 182.794 1865.52 185.095 1870.27 189.696C1875.17 194.297 1877.62 200.605 1877.62 208.62ZM1926.53 245.133C1926.08 247.804 1925.86 250.476 1925.86 253.148C1925.86 260.272 1929.87 263.834 1937.88 263.834C1944.41 263.834 1949.83 261.534 1954.13 256.933L1966.6 185.911H2004.45L1984.86 296.562C1981.59 315.412 1974.1 330.329 1962.37 341.313C1950.8 352.296 1937.51 357.788 1922.52 357.788C1907.53 357.788 1896.69 355.042 1890.01 349.55C1883.48 344.058 1880.22 336.86 1880.22 327.954C1880.22 315.338 1888.01 304.132 1903.6 294.336C1895.14 292.258 1889.79 288.028 1887.57 281.645C1886.23 278.083 1885.56 274.076 1885.56 269.623C1885.56 265.17 1885.93 260.643 1886.68 256.042L1899.14 185.911H1936.99L1926.53 245.133ZM1927.64 325.95C1937.29 325.95 1943.6 317.193 1946.57 299.679L1948.79 286.766C1928.16 296.414 1917.84 306.136 1917.84 315.932C1917.84 318.9 1918.66 321.275 1920.29 323.056C1922.07 324.986 1924.52 325.95 1927.64 325.95Z" fill="url(#paint9_linear_48_54)"/>
<defs>
<filter id="filter0_i_48_54" x="20" y="0" width="312" height="410" filterUnits="userSpaceOnUse" color-interpolation-filters="sRGB">
<feFlood flood-opacity="0" result="BackgroundImageFix"/>
<feBlend mode="normal" in="SourceGraphic" in2="BackgroundImageFix" result="shape"/>
<feColorMatrix in="SourceAlpha" type="matrix" values="0 0 0 0 0 0 0 0 0 0 0 0 0 0 0 0 0 0 127 0" result="hardAlpha"/>
<feOffset dy="10"/>
<feGaussianBlur stdDeviation="5"/>
<feComposite in2="hardAlpha" operator="arithmetic" k2="-1" k3="1"/>
<feColorMatrix type="matrix" values="0 0 0 0 0 0 0 0 0 0 0 0 0 0 0 0 0 0 0.25 0"/>
<feBlend mode="normal" in2="shape" result="effect1_innerShadow_48_54"/>
</filter>
<filter id="filter1_d_48_54" x="52" y="67" width="251" height="117" filterUnits="userSpaceOnUse" color-interpolation-filters="sRGB">
<feFlood flood-opacity="0" result="BackgroundImageFix"/>
<feColorMatrix in="SourceAlpha" type="matrix" values="0 0 0 0 0 0 0 0 0 0 0 0 0 0 0 0 0 0 127 0" result="hardAlpha"/>
<feOffset dy="4"/>
<feGaussianBlur stdDeviation="2"/>
<feComposite in2="hardAlpha" operator="out"/>
<feColorMatrix type="matrix" values="0 0 0 0 0 0 0 0 0 0 0 0 0 0 0 0 0 0 0.25 0"/>
<feBlend mode="normal" in2="BackgroundImageFix" result="effect1_dropShadow_48_54"/>
<feBlend mode="normal" in="SourceGraphic" in2="effect1_dropShadow_48_54" result="shape"/>
</filter>
<linearGradient id="paint0_linear_48_54" x1="80.5" y1="11" x2="305.5" y2="360.5" gradientUnits="userSpaceOnUse">
<stop stop-color="#FE6309"/>
<stop offset="1" stop-color="#EA4335" stop-opacity="0.66"/>
</linearGradient>
<linearGradient id="paint1_linear_48_54" x1="-16" y1="74.1799" x2="95" y2="74.1799" gradientUnits="userSpaceOnUse">
<stop stop-color="#1967D2"/>
<stop offset="1" stop-color="#1967D2" stop-opacity="0"/>
</linearGradient>
<linearGradient id="paint2_linear_48_54" x1="-16" y1="141.18" x2="95" y2="141.18" gradientUnits="userSpaceOnUse">
<stop stop-color="#1967D2"/>
<stop offset="1" stop-color="#1967D2" stop-opacity="0"/>
</linearGradient>
<linearGradient id="paint3_linear_48_54" x1="-16" y1="205.18" x2="95" y2="205.18" gradientUnits="userSpaceOnUse">
<stop stop-color="#1967D2"/>
<stop offset="1" stop-color="#1967D2" stop-opacity="0"/>
</linearGradient>
<linearGradient id="paint4_linear_48_54" x1="-16" y1="272.18" x2="95" y2="272.18" gradientUnits="userSpaceOnUse">
<stop stop-color="#1967D2"/>
<stop offset="1" stop-color="#1967D2" stop-opacity="0"/>
</linearGradient>
<linearGradient id="paint5_linear_48_54" x1="-16" y1="336.18" x2="95" y2="336.18" gradientUnits="userSpaceOnUse">
<stop stop-color="#1967D2"/>
<stop offset="1" stop-color="#1967D2" stop-opacity="0"/>
</linearGradient>
<linearGradient id="paint6_linear_48_54" x1="348.258" y1="47" x2="348.258" y2="119.5" gradientUnits="userSpaceOnUse">
<stop stop-color="#4285F4"/>
<stop offset="1" stop-color="#4285F4" stop-opacity="0.24"/>
</linearGradient>
<linearGradient id="paint7_linear_48_54" x1="348.258" y1="119" x2="348.258" y2="191.5" gradientUnits="userSpaceOnUse">
<stop stop-color="#4285F4"/>
<stop offset="1" stop-color="#4285F4" stop-opacity="0.24"/>
</linearGradient>
<linearGradient id="paint8_linear_48_54" x1="348.5" y1="191" x2="348.5" y2="278.5" gradientUnits="userSpaceOnUse">
<stop stop-color="#4285F4"/>
<stop offset="1" stop-color="#4285F4" stop-opacity="0.24"/>
</linearGradient>
<linearGradient id="paint9_linear_48_54" x1="1218.5" y1="60" x2="1218.5" y2="387" gradientUnits="userSpaceOnUse">
<stop stop-color="#114185"/>
<stop offset="0.824179" stop-color="#4285F4"/>
</linearGradient>
</defs>
</svg>
