<svg width="30" height="29" viewBox="0 0 30 29" fill="" xmlns="http://www.w3.org/2000/svg">
<path fill-rule="evenodd" clip-rule="evenodd" d="M17.8349 5.47264C21.2486 8.88636 21.2486 14.4211 17.8349 17.8348C14.4212 21.2485 8.88642 21.2485 5.47269 17.8348C2.05897 14.4211 2.05897 8.88637 5.47269 5.47264C8.88642 2.05892 14.4212 2.05892 17.8349 5.47264ZM21.2126 18.3235C24.392 13.7782 23.9525 7.47153 19.8943 3.41327C15.3432 -1.13782 7.9644 -1.13782 3.41332 3.41327C-1.13777 7.96435 -1.13777 15.3431 3.41332 19.8942C7.49096 23.9718 13.8386 24.396 18.3885 21.1668C18.4596 21.3401 18.5655 21.5025 18.7062 21.6433L25.6364 28.5735C26.2051 29.1422 27.1271 29.1422 27.6958 28.5735L28.633 27.6363C29.2017 27.0676 29.2017 26.1456 28.633 25.577L21.7028 18.6467C21.5583 18.5023 21.3911 18.3945 21.2126 18.3235Z" fill=""/>
</svg>
