<?xml version="1.0" encoding="iso-8859-1"?>
<!-- Generator: Adobe Illustrator 18.0.0, SVG Export Plug-In . SVG Version: 6.00 Build 0)  -->
<!DOCTYPE svg PUBLIC "-//W3C//DTD SVG 1.1//EN" "http://www.w3.org/Graphics/SVG/1.1/DTD/svg11.dtd">
<svg version="1.1" id="Capa_1" xmlns="http://www.w3.org/2000/svg" xmlns:xlink="http://www.w3.org/1999/xlink" x="0px" y="0px"
	 viewBox="0 0 459.343 459.343" style="enable-background:new 0 0 459.343 459.343;" xml:space="preserve">
<g id="XMLID_12_">
	<path id="XMLID_13_" d="M399.345,247.712c5.861,8.83,15.872,14.661,27.267,14.669c18.085,0.015,32.732-14.646,32.732-32.716
		c0.014-18.078-14.67-32.731-32.747-32.724c-11.379-0.007-21.39,5.825-27.251,14.661h-17.689
		c-1.741-14.862-5.517-29.111-11.183-42.39l15.169-8.755c9.487,4.71,21.068,4.762,30.937-0.928
		c15.662-9.039,21.015-29.06,11.992-44.7c-9.032-15.67-29.082-21.016-44.723-11.97c-9.847,5.675-15.61,15.73-16.269,26.316
		l-15.207,8.778c-8.769-11.835-19.154-22.354-30.869-31.259l8.628-14.945c10.571-0.665,20.634-6.422,26.339-16.29
		c9.046-15.648,3.678-35.662-11.961-44.693c-15.656-9.062-35.692-3.663-44.709,11.992c-5.696,9.846-5.659,21.427-0.949,30.922
		l-8.418,14.586c-13.359-5.899-27.7-9.898-42.706-11.797V60.005c8.838-5.861,14.676-15.872,14.676-27.273
		C262.401,14.654,247.748,0,229.671,0c-18.078,0-32.731,14.654-32.731,32.731c0,11.401,5.838,21.412,14.676,27.273v16.022
		c-15.2,1.638-29.764,5.451-43.325,11.184l-7.806-13.517c4.709-9.487,4.754-21.083-0.942-30.952
		c-9.04-15.648-29.053-21.016-44.708-11.977c-15.64,9.039-21.009,29.053-11.978,44.716c5.698,9.869,15.76,15.618,26.347,16.276
		l7.769,13.457c-12.15,8.935-22.916,19.581-32,31.61l-13.203-7.618c-0.658-10.587-6.421-20.657-16.292-26.354
		c-15.654-9.039-35.676-3.686-44.708,11.977c-9.023,15.647-3.67,35.662,12,44.707c9.847,5.698,21.427,5.646,30.915,0.936
		l12.949,7.477c-5.967,13.644-9.997,28.313-11.792,43.661H60.011c-5.861-8.836-15.879-14.684-27.282-14.676
		c-18.077,0-32.745,14.647-32.729,32.731c0.014,18.071,14.653,32.716,32.729,32.708c11.395,0.016,21.398-5.823,27.259-14.653h14.863
		c1.794,15.35,5.824,30.01,11.797,43.654L73.7,298.843c-9.495-4.717-21.09-4.763-30.952,0.942
		c-15.67,9.038-21.046,29.053-11.977,44.715c9.054,15.633,29.039,21.001,44.708,11.971c9.87-5.698,15.612-15.76,16.269-26.34
		l13.241-7.641c9.083,12.03,19.85,22.669,31.998,31.603l-7.775,13.473c-10.594,0.649-20.664,6.406-26.354,16.282
		c-9.061,15.671-3.701,35.685,11.978,44.716c15.639,9.009,35.654,3.672,44.708-11.998c5.682-9.854,5.636-21.428,0.926-30.915
		l7.828-13.561c13.563,5.734,28.119,9.546,43.319,11.183v16.068c-8.838,5.861-14.676,15.872-14.676,27.273
		c0,18.078,14.653,32.731,32.731,32.731c18.077,0,32.73-14.653,32.73-32.731c0-11.401-5.838-21.412-14.676-27.273v-16.509
		c15.005-1.898,29.346-5.898,42.698-11.797l8.441,14.624c-4.702,9.487-4.748,21.076,0.934,30.929
		c9.04,15.656,29.069,21.024,44.709,11.984c15.654-9.039,21.022-29.052,11.977-44.716c-5.697-9.868-15.76-15.618-26.346-16.276
		l-8.644-14.967c11.723-8.911,22.108-19.43,30.877-31.266l15.215,8.792c0.665,10.572,6.414,20.635,16.276,26.338
		c15.647,9.048,35.676,3.672,44.708-11.977c9.046-15.648,3.67-35.677-11.992-44.708c-9.847-5.69-21.434-5.653-30.929-0.934
		l-15.176-8.763c5.659-13.278,9.442-27.52,11.176-42.383H399.345z M228.251,353.577c-68.334,0-123.928-55.594-123.928-123.928
		s55.594-123.927,123.928-123.927s123.926,55.593,123.926,123.927S296.584,353.577,228.251,353.577z"/>
	<path id="XMLID_16_" d="M291.485,248.145c-7.91-3.139-16.771,0.749-19.873,8.599c-8.231,20.776-26.811,28.177-41.464,28.177
		c-14.653,0-33.231-7.401-41.463-28.177c-3.102-7.85-12.007-11.738-19.873-8.599c-7.864,3.111-11.715,12.007-8.597,19.873
		c11.603,29.313,38.406,47.526,69.933,47.526c31.528,0,58.331-18.213,69.934-47.526C303.2,260.152,299.349,251.256,291.485,248.145z
		"/>
	<path id="XMLID_17_" d="M163.229,198.123c2.804-7.08,9.3-7.627,11.229-7.627c5.136,0,9.331,2.849,11.222,7.627
		c1.556,3.932,6.019,5.831,9.936,4.298c3.934-1.554,5.855-6.003,4.3-9.936c-4.157-10.511-14.153-17.3-25.449-17.3
		c-0.008,0-0.008,0-0.008,0c-11.305,0-21.3,6.789-25.464,17.3c-1.556,3.924,0.366,8.382,4.299,9.936
		c0.926,0.366,1.875,0.539,2.819,0.539C159.155,202.96,162.041,201.127,163.229,198.123z"/>
	<path id="XMLID_18_" d="M285.863,175.185c-0.007,0-0.007,0-0.007,0c-11.305,0-21.3,6.789-25.464,17.3
		c-1.556,3.924,0.366,8.382,4.299,9.936c0.926,0.366,1.876,0.539,2.817,0.539c3.043,0,5.928-1.833,7.118-4.837
		c2.804-7.08,9.3-7.627,11.229-7.627c5.135,0,9.331,2.849,11.222,7.627c1.556,3.932,6.003,5.831,9.936,4.298
		c3.934-1.554,5.853-6.003,4.299-9.936C307.155,181.974,297.16,175.185,285.863,175.185z"/>
</g>
<g>
</g>
<g>
</g>
<g>
</g>
<g>
</g>
<g>
</g>
<g>
</g>
<g>
</g>
<g>
</g>
<g>
</g>
<g>
</g>
<g>
</g>
<g>
</g>
<g>
</g>
<g>
</g>
<g>
</g>
</svg>
